{"title":"Star Wars Episode II Attack Of The Clones 2002 MULTI UHD 4K x264","uid":15835653,"size":50771544961,"categoryP":"video","categoryS":"hd___movies","magnet":"?xt=urn:btih:a820b6eaa243b3065390303ed4c142f675cae68f&amp;dn=Star+Wars+Episode+II+Attack+Of+The+Clones+2002+MULTI+UHD+4K+x264&amp;tr=udp%3A%2F%2Ftracker.leechers-paradise.org%3A6969&amp;tr=udp%3A%2F%2Fzer0day.ch%3A1337&amp;tr=udp%3A%2F%2Fopen.demonii.com%3A1337&amp;tr=udp%3A%2F%2Ftracker.coppersurfer.tk%3A6969&amp;tr=udp%3A%2F%2Fexodus.desync.com%3A6969","seeders":9,"leechers":79,"uploader":"SaM","files":3,"time":1473969464,"description":"UHD 4K 2160p / Blu-Ray 4K Rip / x264\r\nEnglish DTS-HDMA 7.1\r\nFrench DTS 5.1\r\nHindi AC3 2.0\r\nSpanish AC3 5.1\r\nPortuguese AC3 5.1\r\n\r\n\r\nEnglish / French / Spanish / Portuguese\r\n/ Danish / Dutch / Finnish / Norvegian/ Swedish\r\n\r\n+ Foreign &amp; SDH Subs\r\n\r\n\r\n\r\nSCREENSHOTS:\r\n \nhttp://extraimago.com/image/wdqr \nhttp://extraimago.com/image/wdqp \nhttp://extraimago.com/image/wdqY \nhttp://extraimago.com/image/wdqC \nhttp://extraimago.com/image/wdqB \nhttp://extraimago.com/image/wdq4 \nhttp://extraimago.com/image/wdqe \nhttp://extraimago.com/image/wdqZ \nhttp://extraimago.com/image/wdqK \nhttp://extraimago.com/image/wdqJ \nhttp://extraimago.com/image/wdq0 \nhttp://extraimago.com/image/wdqz \nhttp://extraimago.com/image/wdqU \nhttp://extraimago.com/image/wdqM \nhttp://extraimago.com/image/wdq9\r\n\r\nSource : UHD 4K Blu-Ray ripped with HDFury by DRUIDE\r\nFormat : Matroska\r\nFile size : 47.0 GiB\r\nDuration : 2 h 22 min\r\nOverall bit rate : 47.2 Mb/s\r\n\r\nVideo\r\nID : 1\r\nFormat : AVC\r\nFormat/Info : Advanced Video Codec\r\nFormat profile :   \r\nFormat settings, CABAC : Yes\r\nFormat settings, ReFrames : 1 frame\r\nFormat settings, GOP : M=1, N=24\r\nCodec ID : V_MPEG4/ISO/AVC\r\nDuration : 2 h 22 min\r\nBit rate : 40.0 Mb/s\r\nWidth : 3 840 pixels\r\nHeight : 2 160 pixels\r\nDisplay aspect ratio : 16:9\r\nFrame rate mode : Constant\r\nFrame rate : 23.976 (24000/1001) FPS\r\nColor space : YUV\r\nChroma subsampling : 4:2:0\r\nBit depth : 8 bits\r\nScan type : Progressive\r\nBits/(Pixel*Frame) : 0.201\r\nStream size : 39.8 GiB (85%)\r\nLanguage : English\r\nDefault : Yes\r\nForced : No\r\nColor range : Limited\r\nColor primaries : BT.709\r\nTransfer characteristics : BT.709\r\nMatrix coefficients : BT.709\r\n\r\nAudio #1\r\nID : 2\r\nFormat : DTS\r\nFormat/Info : Digital Theater Systems\r\nFormat profile : MA / ES Discrete / Core\r\nMode : 16\r\nFormat settings, Endianness : Big\r\nCodec ID : A_DTS\r\nDuration : 2 h 22 min\r\nBit rate mode : Variable / Constant / Constant\r\nBit rate : 4 533 kb/s / 1 509 kb/s / 1 509 kb/s\r\nChannel(s) : 7 channels / 7 channels / 6 channels\r\nChannel positions : Front: L C R, Side: L R, Back: C, LFE / Front: L C R, Side: L R, Back: C, LFE / Front: L C R, Side: L R, LFE\r\nSampling rate : 48.0 kHz\r\nFrame rate : 93.750 FPS (512 spf)\r\nBit depth : 24 bits\r\nCompression mode : Lossless / Lossy / Lossy\r\nStream size : 4.51 GiB (10%)\r\nLanguage : English\r\nDefault : No\r\nForced : No","torrent":{"xt":"urn:btih:a820b6eaa243b3065390303ed4c142f675cae68f","amp;dn":"Star+Wars+Episode+II+Attack+Of+The+Clones+2002+MULTI+UHD+4K+x264","amp;tr":["udp%3A%2F%2Ftracker.leechers-paradise.org%3A6969","udp%3A%2F%2Fzer0day.ch%3A1337","udp%3A%2F%2Fopen.demonii.com%3A1337","udp%3A%2F%2Ftracker.coppersurfer.tk%3A6969","udp%3A%2F%2Fexodus.desync.com%3A6969"],"infoHash":"a820b6eaa243b3065390303ed4c142f675cae68f","infoHashBuffer":{"type":"Buffer","data":[168,32,182,234,162,67,179,6,83,144,48,62,212,193,66,246,117,202,230,143]},"announce":[],"urlList":[]}}